<?xml version="1.0" encoding="utf-8"?><!-- Uploaded to: SVG Repo, www.svgrepo.com, Generator: SVG Repo Mixer Tools -->
<svg width="80px" height="80px" viewBox="0 0 24 24" fill="none" xmlns="http://www.w3.org/2000/svg">
<path d="M12.0002 16C6.24021 16 5.21983 10.2595 5.03907 5.70647C4.98879 4.43998 4.96365 3.80673 5.43937 3.22083C5.91508 2.63494 6.48445 2.53887 7.62318 2.34674C8.74724 2.15709 10.2166 2 12.0002 2C13.7837 2 15.2531 2.15709 16.3771 2.34674C17.5159 2.53887 18.0852 2.63494 18.5609 3.22083C19.0367 3.80673 19.0115 4.43998 18.9612 5.70647C18.7805 10.2595 17.7601 16 12.0002 16Z" stroke="WHITE" stroke-width="1.5"/>
<path d="M12 17V19" stroke="WHITE" stroke-width="1.5" stroke-linecap="round"/>
<path d="M15.5 22H8.5L8.83922 20.3039C8.93271 19.8365 9.34312 19.5 9.8198 19.5H14.1802C14.6569 19.5 15.0673 19.8365 15.1608 20.3039L15.5 22Z" stroke="WHITE" stroke-width="1.5" stroke-linecap="round" stroke-linejoin="round"/>
<path d="M18 22H6" stroke="WHITE" stroke-width="1.5" stroke-linecap="round"/>
</svg>