<?xml version="1.0" encoding="iso-8859-1"?>
<!-- Uploaded to: SVG Repo, www.svgrepo.com, Generator: SVG Repo Mixer Tools -->
<svg version="1.1" id="Layer_1" xmlns="http://www.w3.org/2000/svg" xmlns:xlink="http://www.w3.org/1999/xlink" 
	 viewBox="0 0 512 512" xml:space="preserve">
<path style="fill:#2D8B99;" d="M512,486.4c0,14.136-11.464,25.6-25.6,25.6H25.6C11.464,512,0,500.536,0,486.4V40.96
	c0-14.136,11.464-25.6,25.6-25.6h460.8c14.136,0,25.6,11.464,25.6,25.6V486.4z"/>
<path style="fill:#39AEC0;" d="M512,471.04c0,14.136-11.464,25.6-25.6,25.6H25.6c-14.136,0-25.6-11.464-25.6-25.6V25.6
	C0,11.464,11.464,0,25.6,0h460.8C500.536,0,512,11.464,512,25.6V471.04z"/>
<path style="fill:#339EAE;" d="M512,471.04V197.914l-0.445-0.364c-0.512-0.645-105.395-105.661-105.989-106.255
	c-6.543-6.543-16.154-8.115-24.192-4.756c-0.502-0.497-12.739-12.749-13.87-13.676c-3.318-4.055-8.018-7.009-13.599-7.89
	c-12.078-1.915-23.419,6.328-25.334,18.406c-0.02,0.113,0.02,0.579,0.077,1.188c-0.589-0.604-1.152-1.234-1.797-1.761
	c-0.932-1.137-1.961-2.161-3.072-3.072c-6.451-7.869-17.705-10.501-27.146-5.688c-10.895,5.55-15.227,18.883-9.677,29.783
	c0.579,1.137,24.474,25.646,32.584,34.012l-0.061,0.051l-0.051,0.061c-8.371-8.105-32.881-32.005-34.012-32.584
	c-10.895-5.55-24.228-1.219-29.783,9.677c-4.813,9.441-2.181,20.695,5.688,27.146c0.911,1.111,1.935,2.14,3.072,3.072
	c0.527,0.645,1.157,1.208,1.761,1.797c-0.609-0.061-1.07-0.097-1.188-0.077c-12.078,1.915-20.321,13.256-18.406,25.334
	c0.886,5.581,3.835,10.281,7.89,13.599c0.927,1.126,11.156,11.361,12.278,12.278c0.461,0.558,0.916,1.106,1.423,1.613
	c-2.836,6.835-2.135,14.792,2.181,21.048l-40.428,40.428c-1.208-2.237-69.509-71.014-69.509-71.014s-19.574,31.457-19.574,70.262
	s19.574,70.262,19.574,70.262s0.271-0.44,0.691-1.172l0.164,0.312l-81.413,81.418l85.048,85.048l0.241,0.241H486.4
	C500.536,496.64,512,485.176,512,471.04z"/>
<rect x="206.786" y="104.875" transform="matrix(-0.7071 -0.7071 0.7071 -0.7071 157.1332 636.9714)" style="fill:#C8DE30;" width="7.403" height="362.134"/>
<path style="fill:#F15B00;" d="M391.496,211.436c-0.691-1.352-34.673-36.081-35.287-36.828c0.748,0.614,35.477,34.601,36.828,35.287
	c10.895,5.55,24.228,1.219,29.783-9.677c5.55-10.895,1.219-24.228-9.677-29.783c-1.352-0.691-49.26-8.812-50.196-9.052
	c0.963,0.061,49.034,7.137,50.534,6.902c12.078-1.915,20.321-13.256,18.406-25.334c-1.915-12.078-13.256-20.321-25.334-18.406
	c-1.5,0.236-45.03,21.827-45.932,22.18c0.814-0.517,43.868-23.045,44.943-24.12c8.648-8.648,8.648-22.666,0-31.314
	s-22.666-8.648-31.314,0c-1.075,1.075-23.603,44.124-24.12,44.943c0.353-0.901,21.944-44.431,22.18-45.932
	c1.915-12.078-6.328-23.419-18.406-25.334c-12.078-1.915-23.419,6.328-25.334,18.406c-0.236,1.5,6.84,49.572,6.902,50.534
	c-0.241-0.937-8.361-48.845-9.052-50.196c-5.55-10.895-18.883-15.227-29.783-9.677c-10.895,5.55-15.227,18.883-9.677,29.783
	c0.691,1.352,34.673,36.081,35.287,36.828c-0.748-0.614-35.477-34.601-36.828-35.287c-10.895-5.55-24.228-1.219-29.783,9.677
	c-5.55,10.895-1.219,24.228,9.677,29.783c1.352,0.691,49.26,8.812,50.196,9.052c-0.968-0.061-49.034-7.137-50.534-6.902
	c-12.078,1.915-20.321,13.256-18.406,25.334s13.256,20.321,25.334,18.406c1.5-0.236,45.03-21.827,45.932-22.18
	c-0.814,0.517-43.868,23.045-44.943,24.12c-8.648,8.648-8.648,22.666,0,31.314s22.666,8.648,31.314,0
	c1.075-1.075,23.603-44.124,24.12-44.943c-0.353,0.901-21.944,44.431-22.18,45.932c-1.915,12.078,6.328,23.419,18.406,25.334
	c12.078,1.915,23.419-6.328,25.334-18.406c0.236-1.5-6.84-49.572-6.902-50.54c0.241,0.937,8.361,48.845,9.052,50.196
	c5.55,10.895,18.883,15.227,29.783,9.677C392.714,235.663,397.046,222.331,391.496,211.436z M335.918,164.127
	c1.531-3.323,2.627-5.816,2.627-5.816s-2.493,1.091-5.816,2.627c3.195-1.787,5.54-3.159,5.54-3.159s-2.657-0.579-6.246-1.295
	c3.635,0.43,6.344,0.701,6.344,0.701s-1.807-2.033-4.291-4.716c2.688,2.483,4.715,4.291,4.715,4.291s-0.271-2.708-0.701-6.344
	c0.712,3.589,1.295,6.246,1.295,6.246s1.372-2.35,3.159-5.54c-1.531,3.323-2.627,5.816-2.627,5.816s2.488-1.091,5.811-2.627
	c-3.19,1.787-5.54,3.159-5.54,3.159s2.657,0.579,6.246,1.295c-3.635-0.43-6.344-0.701-6.344-0.701s1.807,2.033,4.291,4.716
	c-2.688-2.483-4.716-4.291-4.716-4.291s0.271,2.708,0.701,6.344c-0.712-3.589-1.295-6.246-1.295-6.246
	S337.705,160.937,335.918,164.127z"/>
<path style="fill:#DD3800;" d="M391.496,211.436c-0.691-1.352-34.673-36.081-35.287-36.828c0.748,0.614,35.477,34.596,36.828,35.287
	c10.895,5.55,24.228,1.219,29.783-9.677c5.55-10.895,1.219-24.228-9.677-29.783c-1.352-0.691-49.26-8.812-50.196-9.052
	c0.968,0.061,49.034,7.137,50.534,6.902c12.078-1.915,20.316-13.256,18.406-25.334c-1.915-12.078-13.256-20.321-25.334-18.406
	c-1.5,0.236-45.03,21.827-45.932,22.18c0.814-0.517,43.868-23.045,44.943-24.12c8.648-8.648,8.648-22.666,0-31.314l-0.241-0.195
	l-65.065,65.07l-0.343,0.778c0,0,2.488-1.091,5.811-2.621c-3.19,1.787-5.54,3.159-5.54,3.159s2.657,0.579,6.246,1.295
	c-3.635-0.43-6.344-0.701-6.344-0.701s1.807,2.033,4.291,4.716c-2.688-2.483-4.716-4.291-4.716-4.291s0.271,2.708,0.701,6.344
	c-0.712-3.589-1.295-6.246-1.295-6.246s-1.372,2.35-3.159,5.54c1.531-3.323,2.627-5.816,2.627-5.816l-0.778,0.343l-65.06,65.06
	l0.195,0.241c8.648,8.648,22.666,8.648,31.314,0c1.075-1.075,23.603-44.124,24.12-44.943c-0.353,0.901-21.944,44.431-22.18,45.932
	c-1.915,12.078,6.328,23.419,18.406,25.334s23.419-6.328,25.334-18.406c0.236-1.5-6.84-49.572-6.902-50.54
	c0.241,0.937,8.361,48.845,9.052,50.196c5.55,10.895,18.883,15.227,29.783,9.677C392.724,235.663,397.046,222.331,391.496,211.436z"
	/>
<circle style="fill:#FBD800;" cx="339.251" cy="157.629" r="27.924"/>
<g>
	<path style="fill:#C8DE30;" d="M179.978,260.516c0,38.804-19.574,70.262-19.574,70.262s-19.574-31.457-19.574-70.262
		s19.574-70.262,19.574-70.262S179.978,221.711,179.978,260.516z"/>
	<path style="fill:#C8DE30;" d="M235.904,355.584c38.804,0,70.262-19.574,70.262-19.574s-31.457-19.574-70.262-19.574
		s-70.262,19.574-70.262,19.574S197.1,355.584,235.904,355.584z"/>
</g>
<path style="fill:#FACB00;" d="M358.973,137.882l-39.491,39.491c10.906,10.906,28.585,10.906,39.491,0
	S369.879,148.787,358.973,137.882z"/>
</svg>