<svg version="1.1" id="Layer_1" xmlns="http://www.w3.org/2000/svg" xmlns:xlink="http://www.w3.org/1999/xlink" x="0px" y="0px"
	 width="100%" viewBox="0 0 666 375" enable-background="new 0 0 666 375" xml:space="preserve">

<path fill="#717A7F" opacity="1.000000" stroke="none" 
	d="
M367.922729,260.063599 
	C357.516998,260.261627 347.111237,260.459656 335.908875,260.471924 
	C330.114838,260.509308 325.117432,260.732391 320.119995,260.955475 
	C318.260071,260.595367 316.400940,259.926331 314.540100,259.921631 
	C288.209991,259.854950 261.879639,259.878479 235.549347,259.880157 
	C233.920166,259.880249 232.290985,259.880157 230.329773,259.880157 
	C230.329773,205.858871 230.329773,152.292740 230.329773,98.360779 
	C312.015472,98.360779 393.584747,98.360779 475.576904,98.360779 
	C475.576904,151.904465 475.576904,205.474258 475.576904,259.926697 
	C445.828094,259.926697 415.919098,259.926697 385.077637,259.994781 
	C378.737701,260.063110 373.330231,260.063385 367.922729,260.063599 
M238.658386,105.764015 
	C238.443130,108.398987 238.042465,111.033806 238.040161,113.668961 
	C237.999634,160.210327 238.007614,206.751755 237.398087,253.388107 
	C236.614761,251.987152 235.212875,250.614899 235.146332,249.180664 
	C234.629822,238.049850 234.356033,226.907486 234.043243,215.767700 
	C233.969376,213.137085 234.032303,210.502625 234.032303,207.869919 
	C233.349304,207.884720 232.666290,207.899521 231.983292,207.914322 
	C231.983292,222.536728 232.080231,237.160141 231.925262,251.780914 
	C231.877686,256.268982 233.576828,258.053711 238.085663,258.018097 
	C253.568161,257.895691 269.052429,257.995239 284.536011,258.008942 
	C287.789307,258.011810 291.042572,258.009338 294.295868,258.009338 
	C293.834991,257.242950 293.377228,257.054962 292.911713,257.033264 
	C277.462585,256.312347 262.010559,255.648407 246.565659,254.847427 
	C244.661270,254.748672 242.794144,253.931168 241.842422,253.262924 
	C244.502029,253.189453 247.161621,253.053238 249.821259,253.051651 
	C322.211151,253.008240 394.601044,252.978638 467.344116,252.207718 
	C467.571411,250.068634 467.995605,247.929688 467.997040,245.790451 
	C468.026825,201.154556 468.022186,156.518631 467.961487,111.882797 
	C467.958374,109.591652 467.393646,107.301277 466.137543,104.952034 
	C422.881531,104.933762 379.625488,104.892242 336.369476,104.904854 
	C303.928680,104.914322 271.487915,104.993431 238.658386,105.764015 
M460.673859,257.870697 
	C462.055450,257.543976 463.437073,257.217285 464.818695,256.890564 
	C464.730713,256.453217 464.642731,256.015839 464.554718,255.578491 
	C462.189178,255.578491 459.823608,255.578491 457.458038,255.578491 
	C457.384399,255.928482 457.310730,256.278473 457.237091,256.628479 
	C458.145996,257.030334 459.054901,257.432190 460.673859,257.870697 
M450.397064,257.605957 
	C450.477264,256.829376 450.557465,256.052795 450.637695,255.276199 
	C448.540802,255.276199 446.443939,255.276199 444.347046,255.276199 
	C444.324005,255.918488 444.300995,256.560760 444.277954,257.203033 
	C446.095428,257.386261 447.912903,257.569519 450.397064,257.605957 
M435.739471,257.757812 
	C436.419189,257.289703 437.098907,256.821625 438.819519,255.636703 
	C435.144073,255.636703 432.791138,255.636703 430.438202,255.636703 
	C430.391815,256.103790 430.345398,256.570862 430.299011,257.037964 
	C431.883881,257.303589 433.468750,257.569214 435.739471,257.757812 
z"/>
<path fill="#70767D" opacity="1.000000" stroke="none" 
	d="
M327.995453,265.999084 
	C315.400208,278.250305 300.593414,283.102936 281.733612,278.756500 
	C285.432495,276.570343 288.410889,273.309387 291.237854,273.435791 
	C298.211243,273.747467 303.659668,271.038940 309.099945,267.513641 
	C310.047638,266.899536 311.198639,266.599243 313.062775,266.061249 
	C318.578369,265.978668 323.286896,265.988892 327.995453,265.999084 
z"/>
<path fill="#70767D" opacity="1.000000" stroke="none" 
	d="
M393.090210,265.932922 
	C395.387543,267.139923 397.894135,268.069733 399.937927,269.612579 
	C403.999573,272.678680 408.443665,273.311554 413.380920,273.256683 
	C417.368286,273.212341 420.744812,275.047943 422.800537,279.976440 
	C414.445496,279.976440 406.951599,280.574066 399.624329,279.728210 
	C395.873962,279.295258 392.314484,276.457062 388.865570,274.379211 
	C385.530518,272.369965 382.448151,269.941345 379.378540,267.171234 
	C384.031616,266.407990 388.560913,266.170471 393.090210,265.932922 
z"/>
<path fill="#4E5057" opacity="1.000000" stroke="none" 
	d="
M392.939026,265.626160 
	C388.560913,266.170471 384.031616,266.407990 379.201416,266.876343 
	C375.365448,264.951782 371.830383,262.796417 368.109039,260.352356 
	C373.330231,260.063385 378.737701,260.063110 384.618927,260.061707 
	C387.657715,261.813507 390.222778,263.566437 392.939026,265.626160 
z"/>
<path fill="#4E5057" opacity="1.000000" stroke="none" 
	d="
M328.349060,265.949158 
	C323.286896,265.988892 318.578369,265.978668 313.411407,265.966339 
	C315.126099,264.381958 317.299164,262.799683 319.796143,261.086426 
	C325.117432,260.732391 330.114838,260.509308 335.479370,260.427185 
	C333.465210,262.345154 331.083954,264.122162 328.349060,265.949158 
z"/>
<path fill="#53747C" opacity="1.000000" stroke="none" 
	d="
M467.090424,105.010544 
	C467.393646,107.301277 467.958374,109.591652 467.961487,111.882797 
	C468.022186,156.518631 468.026825,201.154556 467.997040,245.790451 
	C467.995605,247.929688 467.571411,250.068634 466.984528,252.399475 
	C466.361481,252.375916 466.097992,252.160599 465.899353,251.482864 
	C465.989471,203.876694 466.016907,156.732925 466.027435,109.589172 
	C466.027679,108.428909 465.840637,107.268600 465.976349,105.938560 
	C466.504669,105.516052 466.797546,105.263290 467.090424,105.010544 
z"/>
<path fill="#8A9294" opacity="1.000000" stroke="none" 
	d="
M240.909760,253.446747 
	C242.794144,253.931168 244.661270,254.748672 246.565659,254.847427 
	C262.010559,255.648407 277.462585,256.312347 292.911713,257.033264 
	C293.377228,257.054962 293.834991,257.242950 294.295868,258.009338 
	C291.042572,258.009338 287.789307,258.011810 284.536011,258.008942 
	C269.052429,257.995239 253.568161,257.895691 238.085663,258.018097 
	C233.576828,258.053711 231.877686,256.268982 231.925262,251.780914 
	C232.080231,237.160141 231.983292,222.536728 231.983292,207.914322 
	C232.666290,207.899521 233.349304,207.884720 234.032303,207.869919 
	C234.032303,210.502625 233.969376,213.137085 234.043243,215.767700 
	C234.356033,226.907486 234.629822,238.049850 235.146332,249.180664 
	C235.212875,250.614899 236.614761,251.987152 237.937408,253.325653 
	C238.476715,253.263199 238.941589,253.179703 239.266724,253.240723 
	C240.031158,253.350067 240.470459,253.398407 240.909760,253.446747 
z"/>
<path fill="#335D64" opacity="1.000000" stroke="none" 
	d="
M466.613983,104.981285 
	C466.797546,105.263290 466.504669,105.516052 465.528442,105.923126 
	C390.975647,106.061546 317.106171,106.044464 243.236725,106.039238 
	C241.909363,106.039139 240.581985,106.180824 239.204956,105.952271 
	C239.119232,105.445969 239.083191,105.243744 239.047134,105.041527 
	C271.487915,104.993431 303.928680,104.914322 336.369476,104.904854 
	C379.625488,104.892242 422.881531,104.933762 466.613983,104.981285 
z"/>
<path fill="#3C626C" opacity="1.000000" stroke="none" 
	d="
M241.376099,253.354828 
	C240.470459,253.398407 240.031158,253.350067 239.336777,252.871033 
	C239.126953,252.194183 239.172211,251.948029 239.662857,251.784363 
	C240.937912,251.922653 241.767593,252.027527 242.597260,252.027283 
	C317.009674,252.005157 391.422089,251.974960 465.834503,251.945282 
	C466.097992,252.160599 466.361481,252.375916 466.807922,252.768967 
	C394.601044,252.978638 322.211151,253.008240 249.821259,253.051651 
	C247.161621,253.053238 244.502029,253.189453 241.376099,253.354828 
z"/>
<path fill="#4A666E" opacity="1.000000" stroke="none" 
	d="
M239.217484,251.701859 
	C239.172211,251.948029 239.126953,252.194183 239.011642,252.810028 
	C238.941589,253.179703 238.476715,253.263199 238.240921,253.278183 
	C238.007614,206.751755 237.999634,160.210327 238.040161,113.668961 
	C238.042465,111.033806 238.443130,108.398987 238.852753,105.402771 
	C239.083191,105.243744 239.119232,105.445969 239.226776,106.377228 
	C239.417542,109.066177 239.536819,111.026100 239.577835,113.450645 
	C239.558533,124.260551 239.617493,134.605835 239.573944,145.353271 
	C239.542480,146.850601 239.613510,147.945770 239.604218,149.494934 
	C239.576553,153.952682 239.629211,157.956451 239.571213,162.419922 
	C239.531982,172.597000 239.603409,182.314377 239.592468,192.491180 
	C239.569092,199.636292 239.628067,206.321960 239.576080,213.463547 
	C239.382584,226.513580 239.300034,239.107727 239.217484,251.701859 
z"/>
<path fill="#565F61" opacity="1.000000" stroke="none" 
	d="
M460.318848,257.852356 
	C459.054901,257.432190 458.145996,257.030334 457.237091,256.628479 
	C457.310730,256.278473 457.384399,255.928482 457.458038,255.578491 
	C459.823608,255.578491 462.189178,255.578491 464.554718,255.578491 
	C464.642731,256.015839 464.730713,256.453217 464.818695,256.890564 
	C463.437073,257.217285 462.055450,257.543976 460.318848,257.852356 
z"/>
<path fill="#565F61" opacity="1.000000" stroke="none" 
	d="
M450.063721,257.679352 
	C447.912903,257.569519 446.095428,257.386261 444.277954,257.203033 
	C444.300995,256.560760 444.324005,255.918488 444.347046,255.276199 
	C446.443939,255.276199 448.540802,255.276199 450.637695,255.276199 
	C450.557465,256.052795 450.477264,256.829376 450.063721,257.679352 
z"/>
<path fill="#565F61" opacity="1.000000" stroke="none" 
	d="
M435.396545,257.796326 
	C433.468750,257.569214 431.883881,257.303589 430.299011,257.037964 
	C430.345398,256.570862 430.391815,256.103790 430.438202,255.636703 
	C432.791138,255.636703 435.144073,255.636703 438.819519,255.636703 
	C437.098907,256.821625 436.419189,257.289703 435.396545,257.796326 
z"/>
<path fill="#77BECD" opacity="1.000000" stroke="none" 
	d="
M239.662857,251.784363 
	C239.300034,239.107727 239.382584,226.513580 239.773590,213.756836 
	C240.376099,215.712936 240.894882,217.828568 240.924026,219.950897 
	C241.031479,227.777740 240.938232,235.607086 240.994980,243.434952 
	C241.043564,250.135132 241.830093,250.962021 248.475800,250.971359 
	C270.961121,251.002945 293.447357,251.081528 315.931396,250.907639 
	C323.907349,250.845947 331.914001,250.453033 339.844055,249.617493 
	C359.034821,247.595459 378.220795,245.464066 397.346649,242.911789 
	C410.855927,241.109055 424.334900,238.895584 437.688232,236.181000 
	C444.965515,234.701614 451.897430,231.219528 455.094116,223.997238 
	C457.755127,217.985077 460.079315,211.472122 460.727936,204.998184 
	C461.886169,193.438141 461.646301,181.739502 462.044952,170.100647 
	C462.124359,167.782150 462.496796,165.475220 462.645386,163.157257 
	C463.026001,157.219894 463.618896,151.280594 463.647827,145.339737 
	C463.694794,135.695938 463.009705,126.040031 463.291504,116.408478 
	C463.532806,108.160187 463.153870,107.282883 454.897766,107.065048 
	C453.898926,107.038696 452.899200,107.041504 451.899872,107.041527 
	C384.443756,107.042976 316.987579,107.085297 249.531662,106.964920 
	C244.662140,106.956230 241.047134,107.845528 239.656113,112.986015 
	C239.536819,111.026100 239.417542,109.066177 239.276443,106.681313 
	C240.581985,106.180824 241.909363,106.039139 243.236725,106.039238 
	C317.106171,106.044464 390.975647,106.061546 465.292999,106.092880 
	C465.840637,107.268600 466.027679,108.428909 466.027435,109.589172 
	C466.016907,156.732925 465.989471,203.876694 465.899353,251.482880 
	C391.422089,251.974960 317.009674,252.005157 242.597260,252.027283 
	C241.767593,252.027527 240.937912,251.922653 239.662857,251.784363 
z"/>
<path fill="#6ECDDD" opacity="1.000000" stroke="none" 
	d="
M239.577835,113.450645 
	C241.047134,107.845528 244.662140,106.956230 249.531662,106.964920 
	C316.987579,107.085297 384.443756,107.042976 451.899872,107.041527 
	C452.899200,107.041504 453.898926,107.038696 454.897766,107.065048 
	C463.153870,107.282883 463.532806,108.160187 463.291504,116.408478 
	C463.009705,126.040031 463.694794,135.695938 463.647827,145.339737 
	C463.618896,151.280594 463.026001,157.219894 462.645386,163.157257 
	C462.496796,165.475220 462.124359,167.782150 462.044952,170.100647 
	C461.646301,181.739502 461.886169,193.438141 460.727936,204.998184 
	C460.079315,211.472122 457.755127,217.985077 455.094116,223.997238 
	C451.897430,231.219528 444.965515,234.701614 437.688232,236.181000 
	C424.334900,238.895584 410.855927,241.109055 397.346649,242.911789 
	C378.220795,245.464066 359.034821,247.595459 339.844055,249.617493 
	C331.914001,250.453033 323.907349,250.845947 315.931396,250.907639 
	C293.447357,251.081528 270.961121,251.002945 248.475800,250.971359 
	C241.830093,250.962021 241.043564,250.135132 240.994980,243.434952 
	C240.938232,235.607086 241.031479,227.777740 240.924026,219.950897 
	C240.894882,217.828568 240.376099,215.712936 239.884552,213.300934 
	C239.628067,206.321960 239.569092,199.636292 239.790375,192.194977 
	C240.369064,184.680679 240.837402,177.923309 240.889282,171.162766 
	C240.912796,168.098541 240.109894,165.027939 239.681885,161.960236 
	C239.629211,157.956451 239.576553,153.952682 239.767639,149.298767 
	C239.899750,147.416122 239.788116,146.183609 239.676468,144.951111 
	C239.617493,134.605835 239.558533,124.260551 239.577835,113.450645 
M344.016296,183.150543 
	C344.016296,183.150543 343.913483,183.226898 343.436981,182.916260 
	C342.425598,182.778610 341.414215,182.640961 339.936584,182.987457 
	C339.631958,183.316071 339.327301,183.644684 338.235291,183.981369 
	C337.186249,183.965927 336.137177,183.950485 334.682617,183.714478 
	C334.418640,183.551910 334.182007,183.356308 333.787415,182.946411 
	C333.567078,182.796448 333.323669,182.730789 332.359344,182.779617 
	C331.899780,182.852325 331.440247,182.925034 330.262512,182.898224 
	C328.203003,182.811722 326.143494,182.725204 323.388824,182.717133 
	C322.931335,182.804459 322.473877,182.891785 321.171204,183.040176 
	C320.328400,183.153061 319.485565,183.265945 318.706116,183.262222 
	C318.706116,183.262222 318.821411,183.327942 318.665619,183.137466 
	C318.472137,182.971252 318.248596,182.904984 317.345642,182.905624 
	C316.708832,183.020203 316.072021,183.134796 314.659210,183.015060 
	C311.803711,182.007919 308.948181,181.000778 305.763153,179.358673 
	C304.553772,179.524475 303.344421,179.690277 302.135040,179.856079 
	C302.843048,182.321793 303.217560,184.969620 304.417267,187.166901 
	C304.922974,188.093094 307.169281,188.068939 308.873749,188.546722 
	C303.302673,195.311066 303.302673,195.311066 304.266083,197.636566 
	C304.855255,197.400040 305.556274,197.294678 306.013885,196.904160 
	C307.893341,195.300217 309.698730,193.609512 312.028198,191.641663 
	C312.340027,191.410263 312.651825,191.178879 312.660522,190.701385 
	C312.660522,190.701385 312.617615,190.313309 313.192200,190.912323 
	C314.443634,193.312057 315.695038,195.711792 317.593048,198.183167 
	C318.025208,198.217880 318.457336,198.252609 319.312195,198.662567 
	C321.192932,198.062592 323.073639,197.462601 325.289825,196.488831 
	C325.732544,196.259720 326.175293,196.030594 327.256989,195.556183 
	C328.570038,194.641190 329.883087,193.726181 331.814575,192.938492 
	C332.227631,193.016617 332.640656,193.094757 333.295471,193.220810 
	C333.550720,193.227173 333.780792,193.153687 334.361816,192.541245 
	C334.857300,191.689850 335.352753,190.838455 336.192474,189.554428 
	C337.125610,188.700607 338.058746,187.846771 339.612915,187.302612 
	C342.071747,189.323166 343.408966,191.112076 339.459198,193.199463 
	C338.334198,193.794022 337.990509,195.866959 336.807678,198.217499 
	C341.028076,197.656265 343.541931,197.321976 346.450867,196.488968 
	C347.956085,195.376663 349.461334,194.264343 351.477905,192.844193 
	C351.991211,192.242401 352.504517,191.640610 353.351593,190.523010 
	C353.549713,190.163712 353.747864,189.804413 353.773743,189.196716 
	C353.773743,189.196716 353.764465,188.894577 354.610504,188.949463 
	C357.812897,188.901108 359.883606,190.040161 360.189148,193.623398 
	C360.288940,194.793930 361.268341,195.889465 361.996033,197.501144 
	C362.029083,197.666153 362.062164,197.831161 362.436981,198.496033 
	C365.751221,200.634277 366.465332,198.275345 366.873322,195.803741 
	C367.357635,192.869659 367.614319,189.898026 368.002472,186.994095 
	C368.002472,186.994095 367.942932,187.007416 368.266174,186.385147 
	C369.268555,183.603790 367.893066,182.310120 365.333557,182.164307 
	C362.755646,182.017456 360.158020,182.216156 356.782349,182.633789 
	C356.520508,182.757996 356.258667,182.882202 355.217377,182.903534 
	C353.391907,182.691772 351.566467,182.480011 349.419678,182.491653 
	C349.094666,182.709076 348.769653,182.926498 347.691620,183.345398 
	C346.702362,183.664963 345.713135,183.984512 344.776154,184.141556 
	C344.776154,184.141556 344.946655,184.150360 344.609985,183.783463 
	C344.380463,183.543823 344.157135,183.298553 344.016296,183.150543 
M292.296570,191.845978 
	C293.313873,191.932495 294.331207,192.019012 295.836090,192.584915 
	C296.239136,192.794464 296.642181,193.003998 297.281616,193.271347 
	C297.531494,193.291275 297.764069,193.236786 298.529785,192.657608 
	C299.122009,191.147934 300.024597,189.682388 300.246796,188.120087 
	C300.852844,183.858307 298.571167,182.400375 293.448334,184.164062 
	C292.852844,184.179718 292.257324,184.195374 290.994751,184.020294 
	C288.749481,182.735825 286.572083,182.423080 286.535858,185.782455 
	C286.514313,187.782120 287.469879,189.878479 288.382507,191.736710 
	C288.590240,192.159668 290.436340,191.778000 292.296570,191.845978 
M395.279755,198.512192 
	C396.523285,198.279007 397.766815,198.045822 399.506348,197.918533 
	C400.334351,197.964981 401.162354,198.011429 402.660645,198.100769 
	C403.107208,198.132874 403.553802,198.164978 404.261658,198.224548 
	C404.534088,198.195282 404.753754,198.071228 405.031494,196.975296 
	C405.120087,194.814362 404.972351,192.605011 405.400635,190.513641 
	C405.603851,189.521317 407.062927,187.942154 407.677765,188.060379 
	C408.826111,188.281189 410.452423,189.400803 410.669006,190.407059 
	C411.186127,192.809570 410.999054,195.363663 411.332794,198.304703 
	C414.333954,200.096344 414.500336,198.283035 414.281464,195.172913 
	C414.369751,193.827408 414.458069,192.481903 414.997559,190.863937 
	C419.555481,189.277435 417.767822,193.107361 418.058838,194.718719 
	C418.776886,198.695023 418.851410,198.921051 422.392700,197.770050 
	C422.611542,197.506058 422.830383,197.242065 423.819489,196.967987 
	C424.589233,196.933594 425.358948,196.899185 426.629333,197.203949 
	C428.794647,195.962021 431.650940,195.205399 432.950409,193.355301 
	C434.575684,191.041321 434.921204,187.828461 435.819153,185.003601 
	C431.695740,184.020370 429.667999,179.617676 425.511322,178.699997 
	C425.400421,178.675507 425.240723,178.872086 424.721405,179.566254 
	C423.366333,180.770660 422.011261,181.975067 419.966278,183.054886 
	C419.034790,183.094147 418.103271,183.133423 416.327850,183.046631 
	C412.213165,182.978027 408.098480,182.909424 403.315369,182.872314 
	C402.869781,182.891830 402.424164,182.911362 401.750336,182.919357 
	C401.510834,182.968948 401.335327,183.103439 401.270111,183.276031 
	C401.270111,183.276031 401.306458,183.330887 400.564484,183.178024 
	C398.695221,183.085449 396.825928,182.992889 394.276825,182.911682 
	C393.601471,183.005447 392.926147,183.099197 391.394196,183.038864 
	C386.284241,182.899368 381.174255,182.759872 375.831635,183.304810 
	C375.714325,183.955292 375.347717,184.682617 375.520630,185.243652 
	C376.548950,188.580536 378.863403,191.851273 375.582428,195.289200 
	C375.447754,195.430313 376.729370,197.704147 377.539337,197.837021 
	C382.270630,198.613098 381.821106,195.370865 381.832306,192.201111 
	C381.837250,190.798584 382.938110,189.399902 383.541473,187.999466 
	C384.343475,189.367569 385.423035,190.649780 385.879578,192.124817 
	C386.496796,194.119049 386.635529,196.261383 387.345581,198.678024 
	C391.014374,199.231049 390.643921,196.350479 390.909027,194.268326 
	C391.218689,191.835770 391.733398,190.248077 394.601471,192.917847 
	C394.725464,194.647568 394.849426,196.377274 395.279755,198.512192 
M420.649048,135.582443 
	C417.645416,141.099197 418.082123,149.502426 421.734528,152.843262 
	C421.734528,152.843262 421.990204,152.917130 421.622437,153.818436 
	C421.388580,154.739639 421.154724,155.660843 420.269928,157.041809 
	C417.563171,163.438339 418.547394,165.228622 425.007935,165.220749 
	C430.917358,165.213547 436.826538,164.992538 443.257996,164.465637 
	C445.543030,155.843826 446.101654,147.180176 442.984558,138.686584 
	C442.402863,137.101593 440.322418,135.357574 438.659271,135.013596 
	C433.968842,134.043518 429.144287,133.627914 424.351654,133.321274 
	C423.338806,133.256485 422.236755,134.586304 421.178040,135.173691 
	C421.178040,135.173691 421.277893,135.175995 420.649048,135.582443 
M277.495056,135.662857 
	C278.724823,135.239609 279.954590,134.816360 280.988373,135.105026 
	C278.784180,144.137604 279.125977,144.616074 287.952545,144.852127 
	C288.284302,144.861008 288.617798,144.888046 288.947784,144.866165 
	C292.482483,144.631683 294.174225,146.252106 294.157074,149.821884 
	C294.137146,153.969360 294.052826,158.134537 294.416595,162.254944 
	C294.526764,163.502808 296.031952,164.627518 296.898193,165.808655 
	C298.253326,164.669922 300.695740,163.607712 300.782166,162.379684 
	C301.246368,155.784164 301.584991,149.102936 300.953064,142.549072 
	C300.734039,140.277191 297.968719,137.098938 295.730255,136.414139 
	C291.111115,135.001007 286.064270,134.986008 281.388702,133.719391 
	C286.049835,130.783554 290.357880,126.579147 295.442261,125.163834 
	C307.763550,121.734047 320.434479,119.545052 332.987732,116.969223 
	C341.424011,115.238159 349.899963,113.700493 358.358185,112.076302 
	C358.300079,111.717148 358.241974,111.357994 358.183868,110.998840 
	C356.532379,110.998840 354.880920,110.998917 353.229462,110.998825 
	C319.571533,110.996841 285.913574,110.994133 252.255630,110.995247 
	C250.756287,110.995293 249.256989,111.038895 247.757584,111.046944 
	C244.719345,111.063248 243.084808,112.526588 243.087769,115.619965 
	C243.096222,124.449707 242.870560,133.289795 243.231186,142.105606 
	C243.481171,148.217148 247.652267,150.981613 253.605499,149.469681 
	C257.304199,148.530319 260.903137,147.198181 264.685883,146.964096 
	C264.663391,151.772171 264.598663,156.580566 264.637573,161.388153 
	C264.655060,163.546463 264.508942,166.002350 267.890259,165.643707 
	C270.464264,165.370697 272.254669,164.485718 272.078552,161.331390 
	C271.856903,157.361618 271.899902,153.373474 271.943909,149.394516 
	C271.958191,148.104706 271.981171,145.918839 272.602509,145.674515 
	C277.320190,143.819427 276.468689,139.674026 277.495056,135.662857 
M328.872528,144.821045 
	C329.205078,144.826981 329.537598,144.834122 329.870178,144.838654 
	C336.593262,144.930099 337.621155,145.985229 337.678589,152.039932 
	C337.735687,158.058533 333.255341,155.961761 330.194153,156.413208 
	C329.379120,156.533417 328.529266,156.507462 327.703003,156.446289 
	C324.108002,156.180130 323.210114,158.194321 323.098511,161.360825 
	C322.982330,164.656845 324.776947,165.279388 327.455933,165.258179 
	C332.777222,165.216019 338.105438,165.377136 343.416199,165.134766 
	C344.792877,165.071930 347.124939,163.980423 347.259766,163.093948 
	C347.572021,161.041061 346.977997,158.780701 346.432495,156.687592 
	C345.940247,154.798828 344.688202,153.074875 344.381561,151.179504 
	C344.015015,148.913712 344.480103,146.525772 344.263123,144.221024 
	C343.665283,137.870926 341.781708,136.201553 335.419739,135.891418 
	C333.776489,135.811310 332.033691,135.827576 330.529236,135.275055 
	C327.892944,134.306885 325.522400,133.636230 324.759644,137.291214 
	C324.102448,140.440002 322.583771,144.186478 328.872528,144.821045 
M409.570099,136.447540 
	C405.351227,135.796906 401.143127,135.052933 396.905487,134.565338 
	C395.922363,134.452225 394.109406,134.999695 393.930573,135.610092 
	C393.248993,137.936371 392.617035,140.480377 392.956177,142.798203 
	C393.084106,143.672333 395.853333,144.362030 397.508942,144.749023 
	C398.931793,145.081635 400.485474,144.927002 401.977570,144.876404 
	C405.535675,144.755768 407.140503,146.470139 407.127808,149.985992 
	C407.113434,153.971222 407.041779,157.973282 407.390411,161.933197 
	C407.506439,163.250900 408.843628,164.461090 409.622528,165.720428 
	C411.018402,164.598282 413.552338,163.542084 413.621857,162.343079 
	C414.014526,155.567322 414.053467,148.743484 413.659119,141.968277 
	C413.554962,140.178650 411.493042,138.502991 409.570099,136.447540 
M307.404022,135.724594 
	C306.378906,138.517456 303.537048,141.704269 307.474701,143.979553 
	C310.657135,145.818451 311.260101,148.174576 311.161560,151.335907 
	C311.063385,154.484680 310.857239,157.678101 311.269165,160.776031 
	C311.501740,162.525391 312.651978,165.338455 313.792847,165.556274 
	C317.057007,166.179474 318.307129,163.850357 318.352386,160.679642 
	C318.423401,155.706390 318.861603,150.735291 318.840546,145.764557 
	C318.810364,138.639282 315.433075,135.487106 307.404022,135.724594 
M336.320374,236.635803 
	C330.445190,236.142319 324.574982,235.465851 318.690704,235.304977 
	C317.468933,235.271591 316.194946,237.150345 314.945038,238.147888 
	C316.307861,238.913040 317.618622,240.216721 319.042175,240.354431 
	C327.238373,241.147278 335.378784,238.683502 343.697327,240.212204 
	C348.328430,241.063263 353.246033,240.340088 358.034424,240.354630 
	C363.206635,240.370331 363.835144,239.345184 361.994965,234.773560 
	C354.662964,234.773560 347.566223,234.773560 339.487976,234.773560 
	C339.320892,234.898911 338.172394,235.760651 336.320374,236.635803 
M388.013794,143.091278 
	C387.624786,138.802734 384.811829,136.527817 381.040375,135.659210 
	C379.568787,135.320282 376.483002,136.235214 376.330750,137.010635 
	C375.888580,139.262817 375.742981,143.170517 376.944305,143.852982 
	C380.771515,146.027145 381.130371,149.021942 380.997711,152.663254 
	C380.894928,155.484924 380.703918,158.352646 381.092529,161.124130 
	C381.319305,162.741501 382.435272,165.372940 383.453033,165.524780 
	C386.377808,165.961166 387.847809,163.986801 387.852905,160.927628 
	C387.862335,155.277878 388.002380,149.628357 388.013794,143.091278 
M270.904114,184.074417 
	C270.941040,187.836700 270.783478,191.618011 271.148682,195.348175 
	C271.242523,196.306732 272.886536,197.667313 273.988495,197.857452 
	C276.241974,198.246246 278.712616,198.365784 280.893677,197.810333 
	C282.181641,197.482346 283.831573,195.772400 284.045074,194.474457 
	C285.676361,184.557373 283.909149,182.670914 273.873932,183.027100 
	C273.061768,183.055939 272.256897,183.291061 270.904114,184.074417 
M358.227020,146.670731 
	C356.191711,147.282959 352.785645,146.634491 353.564789,150.137878 
	C353.811401,151.246826 356.763092,152.139297 358.585785,152.417740 
	C361.008026,152.787735 363.668671,152.915924 365.968292,152.252060 
	C367.250610,151.881882 368.546997,149.778122 368.774811,148.292648 
	C368.887970,147.554825 366.677612,145.802124 365.389984,145.658325 
	C363.324860,145.427689 361.153107,146.152237 358.227020,146.670731 
M381.106110,240.741196 
	C383.428345,239.074982 383.509735,238.787094 381.406342,238.192337 
	C376.483765,236.800400 371.475250,235.712280 365.960144,234.369324 
	C365.960144,237.178711 365.960144,238.583847 365.960144,240.490356 
	C371.004852,240.490356 375.822144,240.490356 381.106110,240.741196 
z"/>
<path fill="#77BECD" opacity="1.000000" stroke="none" 
	d="
M239.571228,162.419922 
	C240.109894,165.027939 240.912796,168.098541 240.889282,171.162766 
	C240.837402,177.923309 240.369064,184.680679 239.872742,191.735535 
	C239.603409,182.314377 239.531982,172.597000 239.571228,162.419922 
z"/>
<path fill="#77BECD" opacity="1.000000" stroke="none" 
	d="
M239.573944,145.353271 
	C239.788116,146.183609 239.899750,147.416122 239.847977,148.844788 
	C239.613510,147.945770 239.542480,146.850601 239.573944,145.353271 
z"/>
<path fill="#85D4E3" opacity="1.000000" stroke="none" 
	d="
M281.184357,134.393112 
	C279.954590,134.816360 278.724823,135.239609 276.766266,135.830444 
	C269.922913,135.764877 263.679138,136.206604 257.737732,135.069046 
	C253.548996,134.267044 252.380615,135.390289 251.593658,138.953400 
	C250.741135,142.813416 252.093430,144.552322 255.991623,144.824432 
	C258.857758,145.024506 261.696136,145.621964 264.546875,146.042328 
	C260.903137,147.198181 257.304199,148.530319 253.605499,149.469681 
	C247.652267,150.981613 243.481171,148.217148 243.231186,142.105606 
	C242.870560,133.289795 243.096222,124.449707 243.087769,115.619965 
	C243.084808,112.526588 244.719345,111.063248 247.757584,111.046944 
	C249.256989,111.038895 250.756287,110.995293 252.255630,110.995247 
	C285.913574,110.994133 319.571533,110.996841 353.229462,110.998825 
	C354.880920,110.998917 356.532379,110.998840 358.183868,110.998840 
	C358.241974,111.357994 358.300079,111.717148 358.358185,112.076302 
	C349.899963,113.700493 341.424011,115.238159 332.987732,116.969223 
	C320.434479,119.545052 307.763550,121.734047 295.442261,125.163834 
	C290.357880,126.579147 286.049835,130.783554 281.220093,133.972015 
	C281.051453,134.224655 281.184357,134.393112 281.184357,134.393112 
z"/>
<path fill="#F4FDFD" opacity="1.000000" stroke="none" 
	d="
M442.735809,164.865753 
	C436.826538,164.992538 430.917358,165.213547 425.007935,165.220749 
	C418.547394,165.228622 417.563171,163.438339 421.062561,156.890610 
	C425.509094,156.796844 429.166382,156.963287 432.815002,156.849808 
	C434.015442,156.812469 436.214935,156.060211 436.219116,155.618530 
	C436.251007,152.231445 436.756287,148.340164 435.256836,145.635345 
	C434.336212,143.974564 430.143219,144.127838 427.419678,143.466522 
	C430.809418,151.483398 430.161072,153.605499 423.942505,153.686646 
	C423.123444,153.726044 422.804749,153.834824 422.594727,153.725830 
	C422.574066,153.179840 422.336334,152.982880 421.990204,152.917130 
	C421.990204,152.917130 421.734528,152.843262 421.542084,152.517273 
	C421.325714,146.519516 421.301788,140.847748 421.277893,135.175995 
	C421.277893,135.175995 421.178040,135.173691 421.620117,135.157913 
	C426.483368,135.426331 430.915955,135.594254 435.322784,136.025284 
	C440.403290,136.522202 443.013916,139.547867 443.019165,144.595993 
	C443.026154,151.352463 442.839386,158.109161 442.735809,164.865753 
z"/>
<path fill="#F3FDFD" opacity="1.000000" stroke="none" 
	d="
M328.445709,144.798096 
	C322.583771,144.186478 324.102448,140.440002 324.759644,137.291214 
	C325.522400,133.636230 327.892944,134.306885 330.529236,135.275055 
	C332.033691,135.827576 333.776489,135.811310 335.419739,135.891418 
	C341.781708,136.201553 343.665283,137.870926 344.263123,144.221024 
	C344.480103,146.525772 344.015015,148.913712 344.381561,151.179504 
	C344.688202,153.074875 345.940247,154.798828 346.432495,156.687592 
	C346.977997,158.780701 347.572021,161.041061 347.259766,163.093948 
	C347.124939,163.980423 344.792877,165.071930 343.416199,165.134766 
	C338.105438,165.377136 332.777222,165.216019 327.455933,165.258179 
	C324.776947,165.279388 322.982330,164.656845 323.098511,161.360825 
	C323.210114,158.194321 324.108002,156.180130 327.703003,156.446289 
	C328.529266,156.507462 329.379120,156.533417 330.194153,156.413208 
	C333.255341,155.961761 337.735687,158.058533 337.678589,152.039932 
	C337.621155,145.985229 336.593262,144.930099 329.870178,144.838654 
	C329.537598,144.834122 329.205078,144.826981 328.445709,144.798096 
z"/>
<path fill="#F4FDFD" opacity="1.000000" stroke="none" 
	d="
M264.616394,146.503220 
	C261.696136,145.621964 258.857758,145.024506 255.991623,144.824432 
	C252.093430,144.552322 250.741135,142.813416 251.593658,138.953400 
	C252.380615,135.390289 253.548996,134.267044 257.737732,135.069046 
	C263.679138,136.206604 269.922913,135.764877 276.502716,136.030350 
	C276.468689,139.674026 277.320190,143.819427 272.602509,145.674515 
	C271.981171,145.918839 271.958191,148.104706 271.943909,149.394516 
	C271.899902,153.373474 271.856903,157.361618 272.078552,161.331390 
	C272.254669,164.485718 270.464264,165.370697 267.890259,165.643707 
	C264.508942,166.002350 264.655060,163.546463 264.637573,161.388153 
	C264.598663,156.580566 264.663391,151.772171 264.616394,146.503220 
z"/>
<path fill="#F0FCFC" opacity="1.000000" stroke="none" 
	d="
M281.122406,134.310242 
	C286.064270,134.986008 291.111115,135.001007 295.730255,136.414139 
	C297.968719,137.098938 300.734039,140.277191 300.953064,142.549072 
	C301.584991,149.102936 301.246368,155.784164 300.782166,162.379684 
	C300.695740,163.607712 298.253326,164.669922 296.898193,165.808655 
	C296.031952,164.627518 294.526764,163.502808 294.416595,162.254944 
	C294.052826,158.134537 294.137146,153.969360 294.157074,149.821884 
	C294.174225,146.252106 292.482483,144.631683 288.947784,144.866165 
	C288.617798,144.888046 288.284302,144.861008 287.952545,144.852127 
	C279.125977,144.616074 278.784180,144.137604 281.086365,134.749069 
	C281.184357,134.393112 281.051453,134.224655 281.122406,134.310242 
z"/>
<path fill="#F0FCFC" opacity="1.000000" stroke="none" 
	d="
M409.950073,136.611267 
	C411.493042,138.502991 413.554962,140.178650 413.659119,141.968277 
	C414.053467,148.743484 414.014526,155.567322 413.621857,162.343079 
	C413.552338,163.542084 411.018402,164.598282 409.622528,165.720428 
	C408.843628,164.461090 407.506439,163.250900 407.390411,161.933197 
	C407.041779,157.973282 407.113434,153.971222 407.127808,149.985992 
	C407.140503,146.470139 405.535675,144.755768 401.977570,144.876404 
	C400.485474,144.927002 398.931793,145.081635 397.508942,144.749023 
	C395.853333,144.362030 393.084106,143.672333 392.956177,142.798203 
	C392.617035,140.480377 393.248993,137.936371 393.930573,135.610092 
	C394.109406,134.999695 395.922363,134.452225 396.905487,134.565338 
	C401.143127,135.052933 405.351227,135.796906 409.950073,136.611267 
z"/>
<path fill="#EEFBFC" opacity="1.000000" stroke="none" 
	d="
M307.710815,135.492798 
	C315.433075,135.487106 318.810364,138.639282 318.840546,145.764557 
	C318.861603,150.735291 318.423401,155.706390 318.352386,160.679642 
	C318.307129,163.850357 317.057007,166.179474 313.792847,165.556274 
	C312.651978,165.338455 311.501740,162.525391 311.269165,160.776031 
	C310.857239,157.678101 311.063385,154.484680 311.161560,151.335907 
	C311.260101,148.174576 310.657135,145.818451 307.474701,143.979553 
	C303.537048,141.704269 306.378906,138.517456 307.710815,135.492798 
z"/>
<path fill="#B8E8ED" opacity="1.000000" stroke="none" 
	d="
M336.672119,236.629089 
	C338.172394,235.760651 339.320892,234.898911 339.487976,234.773560 
	C347.566223,234.773560 354.662964,234.773560 361.994965,234.773560 
	C363.835144,239.345184 363.206635,240.370331 358.034424,240.354630 
	C353.246033,240.340088 348.328430,241.063263 343.697327,240.212204 
	C335.378784,238.683502 327.238373,241.147278 319.042175,240.354431 
	C317.618622,240.216721 316.307861,238.913040 314.945038,238.147873 
	C316.194946,237.150345 317.468933,235.271591 318.690704,235.304977 
	C324.574982,235.465851 330.445190,236.142319 336.672119,236.629089 
z"/>
<path fill="#F0FCFC" opacity="1.000000" stroke="none" 
	d="
M388.050903,143.535004 
	C388.002380,149.628357 387.862335,155.277878 387.852905,160.927628 
	C387.847809,163.986801 386.377808,165.961166 383.453033,165.524780 
	C382.435272,165.372940 381.319305,162.741501 381.092529,161.124130 
	C380.703918,158.352646 380.894928,155.484924 380.997711,152.663254 
	C381.130371,149.021942 380.771515,146.027145 376.944305,143.852982 
	C375.742981,143.170517 375.888580,139.262817 376.330750,137.010635 
	C376.483002,136.235214 379.568787,135.320282 381.040375,135.659210 
	C384.811829,136.527817 387.624786,138.802734 388.050903,143.535004 
z"/>
<path fill="#E4FAFC" opacity="1.000000" stroke="none" 
	d="
M386.979553,198.340179 
	C386.635529,196.261383 386.496796,194.119049 385.879578,192.124817 
	C385.423035,190.649780 384.343475,189.367569 383.541473,187.999466 
	C382.938110,189.399902 381.837250,190.798584 381.832306,192.201111 
	C381.821106,195.370865 382.270630,198.613098 377.539337,197.837021 
	C376.729370,197.704147 375.447754,195.430313 375.582428,195.289200 
	C378.863403,191.851273 376.548950,188.580536 375.520630,185.243652 
	C375.347717,184.682617 375.714325,183.955292 376.392700,183.010132 
	C378.610992,182.846405 380.266235,183.020920 381.925995,183.098846 
	C384.889862,183.237961 388.566101,182.651779 389.271088,186.558670 
	C389.999634,190.595886 391.499268,195.165283 386.979553,198.340179 
z"/>
<path fill="#ECFDFE" opacity="1.000000" stroke="none" 
	d="
M271.176392,183.752380 
	C272.256897,183.291061 273.061768,183.055939 273.873932,183.027100 
	C283.909149,182.670914 285.676361,184.557373 284.045074,194.474457 
	C283.831573,195.772400 282.181641,197.482346 280.893677,197.810333 
	C278.712616,198.365784 276.241974,198.246246 273.988495,197.857452 
	C272.886536,197.667313 271.242523,196.306732 271.148682,195.348175 
	C270.783478,191.618011 270.941040,187.836700 271.176392,183.752380 
M275.282867,192.595154 
	C277.075684,192.398834 278.903076,192.325653 280.615784,191.844269 
	C280.820801,191.786652 280.853668,188.963455 280.163910,188.393890 
	C279.196442,187.594986 276.801544,187.020706 276.229126,187.583328 
	C275.256256,188.539581 275.228363,190.457230 275.282867,192.595154 
z"/>
<path fill="#85CDD8" opacity="1.000000" stroke="none" 
	d="
M424.442841,153.756012 
	C430.161072,153.605499 430.809418,151.483398 427.419678,143.466522 
	C430.143219,144.127838 434.336212,143.974564 435.256836,145.635345 
	C436.756287,148.340164 436.251007,152.231445 436.219116,155.618530 
	C436.214935,156.060211 434.015442,156.812469 432.815002,156.849808 
	C429.166382,156.963287 425.509094,156.796844 421.388000,156.660736 
	C421.154724,155.660843 421.388580,154.739639 421.806335,153.367783 
	C422.336334,152.982880 422.574066,153.179840 422.837097,153.715424 
	C423.461487,153.867188 423.952179,153.811600 424.442841,153.756012 
z"/>
<path fill="#E5FCFD" opacity="1.000000" stroke="none" 
	d="
M311.531342,191.950714 
	C309.698730,193.609512 307.893341,195.300217 306.013885,196.904160 
	C305.556274,197.294678 304.855255,197.400040 304.266083,197.636566 
	C303.302673,195.311066 303.302673,195.311066 308.873749,188.546722 
	C307.169281,188.068939 304.922974,188.093094 304.417267,187.166901 
	C303.217560,184.969620 302.843048,182.321793 302.135040,179.856079 
	C303.344421,179.690277 304.553772,179.524475 305.914062,180.058899 
	C306.780457,181.509628 307.441040,182.842529 308.220398,182.916046 
	C313.229736,183.388657 313.570343,186.418076 312.617615,190.313309 
	C312.617615,190.313309 312.660522,190.701385 312.509949,190.876251 
	C312.083374,191.350967 311.807343,191.650833 311.531342,191.950714 
z"/>
<path fill="#E6FDFD" opacity="1.000000" stroke="none" 
	d="
M326.618011,195.801483 
	C326.175293,196.030594 325.732544,196.259720 324.738525,196.729050 
	C322.421326,197.408630 320.655426,197.847977 318.889496,198.287323 
	C318.457336,198.252609 318.025208,198.217880 317.182129,197.741211 
	C316.325867,192.615952 315.880524,187.932663 315.435211,183.249374 
	C316.072021,183.134796 316.708832,183.020203 317.857727,183.060333 
	C318.369812,183.215057 318.821411,183.327942 318.821411,183.327942 
	C318.821411,183.327942 318.706116,183.262222 318.765869,183.731903 
	C318.954865,185.849518 318.899414,187.540604 319.271362,189.131805 
	C319.572754,190.421188 320.112427,191.996613 321.082642,192.655075 
	C321.632507,193.028259 324.060425,191.995117 324.228821,191.267960 
	C324.521088,190.006119 323.759521,188.477966 323.359985,187.084396 
	C322.963409,185.701263 322.468262,184.346375 322.016388,182.979095 
	C322.473877,182.891785 322.931335,182.804459 324.095764,182.821564 
	C325.875854,184.666718 327.670380,186.338028 327.846100,188.165054 
	C328.084900,190.648193 327.086090,193.250366 326.618011,195.801483 
z"/>
<path fill="#E6FDFD" opacity="1.000000" stroke="none" 
	d="
M414.546387,191.136398 
	C414.458069,192.481903 414.369751,193.827408 414.111969,195.869598 
	C412.993774,196.996353 412.045044,197.426453 411.096375,197.856537 
	C410.999054,195.363663 411.186127,192.809570 410.669006,190.407059 
	C410.452423,189.400803 408.826111,188.281189 407.677765,188.060379 
	C407.062927,187.942154 405.603851,189.521317 405.400635,190.513641 
	C404.972351,192.605011 405.120087,194.814362 404.738586,197.479706 
	C404.445709,197.984131 404.000366,198.197083 404.000366,198.197083 
	C403.553802,198.164978 403.107208,198.132874 402.274963,197.620758 
	C401.695007,192.537445 401.500732,187.934174 401.306458,183.330887 
	C401.306458,183.330887 401.270111,183.276031 401.450775,183.230316 
	C401.631439,183.184616 401.978577,182.930878 401.978577,182.930878 
	C402.424164,182.911362 402.869781,182.891830 404.079102,182.944336 
	C413.502899,183.379791 413.502899,183.379791 414.546387,191.136398 
z"/>
<path fill="#E4FAFC" opacity="1.000000" stroke="none" 
	d="
M425.103760,178.965591 
	C425.240723,178.872086 425.400421,178.675507 425.511322,178.699997 
	C429.667999,179.617676 431.695740,184.020370 435.819153,185.003601 
	C434.921204,187.828461 434.575684,191.041321 432.950409,193.355301 
	C431.650940,195.205399 428.794647,195.962021 426.449402,196.690872 
	C428.222534,193.606598 430.175598,191.035400 432.109528,188.489410 
	C425.439758,185.214600 425.439758,185.214600 425.103760,178.965591 
z"/>
<path fill="#ECFDFE" opacity="1.000000" stroke="none" 
	d="
M358.626709,146.571930 
	C361.153107,146.152237 363.324860,145.427689 365.389984,145.658325 
	C366.677612,145.802124 368.887970,147.554825 368.774811,148.292648 
	C368.546997,149.778122 367.250610,151.881882 365.968292,152.252060 
	C363.668671,152.915924 361.008026,152.787735 358.585785,152.417740 
	C356.763092,152.139297 353.811401,151.246826 353.564789,150.137878 
	C352.785645,146.634491 356.191711,147.282959 358.626709,146.571930 
z"/>
<path fill="#E6FDFD" opacity="1.000000" stroke="none" 
	d="
M362.095215,197.996155 
	C362.062164,197.831161 362.029083,197.666153 361.967346,196.812973 
	C361.772888,192.220093 363.820343,187.152496 356.880127,186.763733 
	C356.516693,186.743378 356.288147,184.314163 355.996796,183.006409 
	C356.258667,182.882202 356.520508,182.757996 357.531982,182.650604 
	C360.248474,182.832016 362.216705,183.143738 364.181915,183.125687 
	C366.918091,183.100601 368.167175,184.280396 367.942932,187.007416 
	C367.942932,187.007416 368.002472,186.994095 367.651917,187.175293 
	C366.829865,189.479340 366.036224,191.591812 365.967316,193.727661 
	C365.878601,196.477478 365.160095,198.171280 362.095215,197.996155 
z"/>
<path fill="#E4FAFC" opacity="1.000000" stroke="none" 
	d="
M339.022675,183.973297 
	C339.327301,183.644684 339.631958,183.316071 340.488220,182.884094 
	C341.997742,182.929459 342.955597,183.078171 343.913483,183.226898 
	C343.913483,183.226898 344.016296,183.150543 344.028381,183.369293 
	C344.342560,183.775497 344.644592,183.962936 344.946655,184.150360 
	C344.946655,184.150360 344.776154,184.141556 344.826508,184.620010 
	C345.269836,189.061539 345.662811,193.024597 346.055786,196.987671 
	C343.541931,197.321976 341.028076,197.656265 336.807678,198.217499 
	C337.990509,195.866959 338.334198,193.794022 339.459198,193.199463 
	C343.408966,191.112076 342.071747,189.323166 339.287170,186.770920 
	C338.981842,185.483917 339.002258,184.728607 339.022675,183.973297 
z"/>
<path fill="#85CDD8" opacity="1.000000" stroke="none" 
	d="
M442.996887,164.665695 
	C442.839386,158.109161 443.026154,151.352463 443.019165,144.595993 
	C443.013916,139.547867 440.403290,136.522202 435.322784,136.025284 
	C430.915955,135.594254 426.483368,135.426331 421.618988,135.207840 
	C422.236755,134.586304 423.338806,133.256485 424.351654,133.321274 
	C429.144287,133.627914 433.968842,134.043518 438.659271,135.013596 
	C440.322418,135.357574 442.402863,137.101593 442.984558,138.686584 
	C446.101654,147.180176 445.543030,155.843826 442.996887,164.665695 
z"/>
<path fill="#B8E8ED" opacity="1.000000" stroke="none" 
	d="
M380.872772,240.615784 
	C375.822144,240.490356 371.004852,240.490356 365.960144,240.490356 
	C365.960144,238.583847 365.960144,237.178711 365.960144,234.369324 
	C371.475250,235.712280 376.483765,236.800400 381.406342,238.192337 
	C383.509735,238.787094 383.428345,239.074982 380.872772,240.615784 
z"/>
<path fill="#85CDD8" opacity="1.000000" stroke="none" 
	d="
M424.912598,179.265930 
	C425.439758,185.214600 425.439758,185.214600 432.109528,188.489410 
	C430.175598,191.035400 428.222534,193.606598 426.199066,196.521301 
	C425.358948,196.899185 424.589233,196.933594 423.390839,196.520050 
	C422.357513,191.745239 424.897705,186.855850 420.656158,183.179474 
	C422.011261,181.975067 423.366333,180.770660 424.912598,179.265930 
z"/>
<path fill="#8CCED8" opacity="1.000000" stroke="none" 
	d="
M414.771973,191.000168 
	C413.502899,183.379791 413.502899,183.379791 404.413330,182.928589 
	C408.098480,182.909424 412.213165,182.978027 416.739563,183.481445 
	C418.143921,188.151047 419.077881,192.401398 420.193390,196.603577 
	C420.357941,197.223419 421.381897,197.615112 422.008240,198.112366 
	C418.851410,198.921051 418.776886,198.695023 418.058838,194.718719 
	C417.767822,193.107361 419.555481,189.277435 414.771973,191.000168 
z"/>
<path fill="#8CCED8" opacity="1.000000" stroke="none" 
	d="
M400.935486,183.254456 
	C401.500732,187.934174 401.695007,192.537445 401.939819,197.599304 
	C401.162354,198.011429 400.334351,197.964981 399.205505,197.583984 
	C398.640350,196.520706 398.376068,195.791992 398.068787,194.613586 
	C397.673492,190.226608 399.645782,185.655914 394.956665,182.900330 
	C396.825928,182.992889 398.695221,183.085449 400.935486,183.254456 
z"/>
<path fill="#89CCD7" opacity="1.000000" stroke="none" 
	d="
M387.162567,198.509094 
	C391.499268,195.165283 389.999634,190.595886 389.271088,186.558670 
	C388.566101,182.651779 384.889862,183.237961 381.925995,183.098846 
	C380.266235,183.020920 378.610992,182.846405 376.509033,182.667908 
	C381.174255,182.759872 386.284241,182.899368 391.800385,183.478394 
	C392.973541,186.631378 393.740540,189.344818 394.507507,192.058258 
	C391.733398,190.248077 391.218689,191.835770 390.909027,194.268326 
	C390.643921,196.350479 391.014374,199.231049 387.162567,198.509094 
z"/>
<path fill="#E6FDFD" opacity="1.000000" stroke="none" 
	d="
M422.200470,197.941208 
	C421.381897,197.615112 420.357941,197.223419 420.193390,196.603577 
	C419.077881,192.401398 418.143921,188.151047 417.161499,183.544479 
	C418.103271,183.133423 419.034790,183.094147 420.311218,183.117188 
	C424.897705,186.855850 422.357513,191.745239 423.005676,196.525101 
	C422.830383,197.242065 422.611542,197.506058 422.200470,197.941208 
z"/>
<path fill="#E6FDFD" opacity="1.000000" stroke="none" 
	d="
M394.554504,192.488052 
	C393.740540,189.344818 392.973541,186.631378 392.228699,183.555450 
	C392.926147,183.099197 393.601471,183.005447 394.616760,182.906006 
	C399.645782,185.655914 397.673492,190.226608 397.983521,194.953339 
	C396.951996,196.530853 395.962708,197.318924 394.973389,198.106995 
	C394.849426,196.377274 394.725464,194.647568 394.554504,192.488052 
z"/>
<path fill="#E4FAFC" opacity="1.000000" stroke="none" 
	d="
M294.342896,184.162537 
	C298.571167,182.400375 300.852844,183.858307 300.246796,188.120087 
	C300.024597,189.682388 299.122009,191.147934 298.017700,192.878876 
	C297.505615,193.100143 297.045227,193.213531 297.045227,193.213531 
	C296.642181,193.003998 296.239136,192.794464 295.778992,191.978745 
	C295.262238,188.969223 294.802551,186.565887 294.342896,184.162537 
z"/>
<path fill="#E4FAFC" opacity="1.000000" stroke="none" 
	d="
M291.528351,191.766693 
	C290.436340,191.778000 288.590240,192.159668 288.382507,191.736710 
	C287.469879,189.878479 286.514313,187.782120 286.535858,185.782455 
	C286.572083,182.423080 288.749481,182.735825 291.454590,184.435883 
	C291.785736,187.156555 291.657043,189.461624 291.528351,191.766693 
z"/>
<path fill="#E4FAFC" opacity="1.000000" stroke="none" 
	d="
M348.444580,183.143921 
	C348.769653,182.926498 349.094666,182.709076 349.830383,182.604706 
	C351.415558,184.776703 352.589996,186.835648 353.764465,188.894577 
	C353.764465,188.894577 353.773743,189.196716 353.611725,189.524307 
	C353.305756,190.247543 353.161774,190.643173 353.017822,191.038818 
	C352.504517,191.640610 351.991211,192.242401 350.922180,192.860382 
	C349.725861,189.632370 349.085205,186.388138 348.444580,183.143921 
z"/>
<path fill="#89CCD7" opacity="1.000000" stroke="none" 
	d="
M315.047211,183.132217 
	C315.880524,187.932663 316.325867,192.615952 316.858826,197.705383 
	C315.695038,195.711792 314.443634,193.312057 312.904907,190.612823 
	C313.570343,186.418076 313.229736,183.388657 308.220398,182.916046 
	C307.441040,182.842529 306.780457,181.509628 306.078827,180.376373 
	C308.948181,181.000778 311.803711,182.007919 315.047211,183.132217 
z"/>
<path fill="#89CCD7" opacity="1.000000" stroke="none" 
	d="
M321.593811,183.009644 
	C322.468262,184.346375 322.963409,185.701263 323.359985,187.084396 
	C323.759521,188.477966 324.521088,190.006119 324.228821,191.267960 
	C324.060425,191.995117 321.632507,193.028259 321.082642,192.655075 
	C320.112427,191.996613 319.572754,190.421188 319.271362,189.131805 
	C318.899414,187.540604 318.954865,185.849518 318.734192,183.790207 
	C319.485565,183.265945 320.328400,183.153061 321.593811,183.009644 
z"/>
<path fill="#89CCD7" opacity="1.000000" stroke="none" 
	d="
M354.187500,188.922028 
	C352.589996,186.835648 351.415558,184.776703 349.991028,182.493011 
	C351.566467,182.480011 353.391907,182.691772 355.607086,182.954971 
	C356.288147,184.314163 356.516693,186.743378 356.880127,186.763733 
	C363.820343,187.152496 361.772888,192.220093 361.892059,196.572052 
	C361.268341,195.889465 360.288940,194.793930 360.189148,193.623398 
	C359.883606,190.040161 357.812897,188.901108 354.187500,188.922028 
z"/>
<path fill="#89CCD7" opacity="1.000000" stroke="none" 
	d="
M326.937500,195.678833 
	C327.086090,193.250366 328.084900,190.648193 327.846100,188.165054 
	C327.670380,186.338028 325.875854,184.666718 324.443329,182.782349 
	C326.143494,182.725204 328.203003,182.811722 330.537048,183.275818 
	C330.939789,186.706009 331.067963,189.758606 331.196136,192.811188 
	C329.883087,193.726181 328.570038,194.641190 326.937500,195.678833 
z"/>
<path fill="#E4FAFC" opacity="1.000000" stroke="none" 
	d="
M331.505371,192.874847 
	C331.067963,189.758606 330.939789,186.706009 330.896149,183.325592 
	C331.440247,182.925034 331.899780,182.852325 332.925262,182.887634 
	C333.491180,182.995667 333.972717,183.127640 333.972717,183.127640 
	C334.182007,183.356308 334.418640,183.551910 335.034058,184.180603 
	C335.539764,186.426834 335.694000,188.206940 335.848206,189.987061 
	C335.352753,190.838455 334.857300,191.689850 333.936829,192.792236 
	C333.511871,193.043228 333.053711,193.172882 333.053711,193.172882 
	C332.640656,193.094757 332.227631,193.016617 331.505371,192.874847 
z"/>
<path fill="#89CCD7" opacity="1.000000" stroke="none" 
	d="
M348.068115,183.244659 
	C349.085205,186.388138 349.725861,189.632370 350.666504,193.014313 
	C349.461334,194.264343 347.956085,195.376663 346.253326,196.738312 
	C345.662811,193.024597 345.269836,189.061539 344.800354,184.701263 
	C345.713135,183.984512 346.702362,183.664963 348.068115,183.244659 
z"/>
<path fill="#85CDD8" opacity="1.000000" stroke="none" 
	d="
M420.963470,135.379211 
	C421.301788,140.847748 421.325714,146.519516 421.453003,152.616074 
	C418.082123,149.502426 417.645416,141.099197 420.963470,135.379211 
z"/>
<path fill="#89CCD7" opacity="1.000000" stroke="none" 
	d="
M291.912476,191.806335 
	C291.657043,189.461624 291.785736,187.156555 291.788147,184.531250 
	C292.257324,184.195374 292.852844,184.179718 293.895630,184.163300 
	C294.802551,186.565887 295.262238,188.969223 295.535217,191.739044 
	C294.331207,192.019012 293.313873,191.932495 291.912476,191.806335 
z"/>
<path fill="#89CCD7" opacity="1.000000" stroke="none" 
	d="
M362.266113,198.246094 
	C365.160095,198.171280 365.878601,196.477478 365.967316,193.727661 
	C366.036224,191.591812 366.829865,189.479340 367.635498,187.149567 
	C367.614319,189.898026 367.357635,192.869659 366.873322,195.803741 
	C366.465332,198.275345 365.751221,200.634277 362.266113,198.246094 
z"/>
<path fill="#89CCD7" opacity="1.000000" stroke="none" 
	d="
M368.104553,186.696289 
	C368.167175,184.280396 366.918091,183.100601 364.181915,183.125687 
	C362.216705,183.143738 360.248474,182.832016 357.925293,182.465424 
	C360.158020,182.216156 362.755646,182.017456 365.333557,182.164307 
	C367.893066,182.310120 369.268555,183.603790 368.104553,186.696289 
z"/>
<path fill="#89CCD7" opacity="1.000000" stroke="none" 
	d="
M336.020325,189.770752 
	C335.694000,188.206940 335.539764,186.426834 335.236816,184.290863 
	C336.137177,183.950485 337.186249,183.965927 338.628967,183.977325 
	C339.002258,184.728607 338.981842,185.483917 338.976654,186.616089 
	C338.058746,187.846771 337.125610,188.700607 336.020325,189.770752 
z"/>
<path fill="#89CCD7" opacity="1.000000" stroke="none" 
	d="
M319.100830,198.474945 
	C320.655426,197.847977 322.421326,197.408630 324.570801,196.915939 
	C323.073639,197.462601 321.192932,198.062592 319.100830,198.474945 
z"/>
<path fill="#89CCD7" opacity="1.000000" stroke="none" 
	d="
M395.126587,198.309601 
	C395.962708,197.318924 396.951996,196.530853 398.026550,195.403030 
	C398.376068,195.791992 398.640350,196.520706 398.957489,197.531036 
	C397.766815,198.045822 396.523285,198.279007 395.126587,198.309601 
z"/>
<path fill="#8CCED8" opacity="1.000000" stroke="none" 
	d="
M411.214569,198.080627 
	C412.045044,197.426453 412.993774,196.996353 414.113495,196.274948 
	C414.500336,198.283035 414.333954,200.096344 411.214569,198.080627 
z"/>
<path fill="#89CCD7" opacity="1.000000" stroke="none" 
	d="
M343.675232,183.071579 
	C342.955597,183.078171 341.997742,182.929459 340.721344,182.642029 
	C341.414215,182.640961 342.425598,182.778610 343.675232,183.071579 
z"/>
<path fill="#8CCED8" opacity="1.000000" stroke="none" 
	d="
M401.864441,182.925110 
	C401.978577,182.930878 401.631439,183.184616 401.427612,183.253723 
	C401.335327,183.103439 401.510834,182.968948 401.864441,182.925110 
z"/>
<path fill="#89CCD7" opacity="1.000000" stroke="none" 
	d="
M344.778320,183.966919 
	C344.644592,183.962936 344.342560,183.775497 343.990265,183.317871 
	C344.157135,183.298553 344.380463,183.543823 344.778320,183.966919 
z"/>
<path fill="#89CCD7" opacity="1.000000" stroke="none" 
	d="
M297.163422,193.242432 
	C297.045227,193.213531 297.505615,193.100143 297.742493,193.104004 
	C297.764069,193.236786 297.531494,193.291275 297.163422,193.242432 
z"/>
<path fill="#89CCD7" opacity="1.000000" stroke="none" 
	d="
M311.779785,191.796188 
	C311.807343,191.650833 312.083374,191.350967 312.661499,190.999298 
	C312.651825,191.178879 312.340027,191.410263 311.779785,191.796188 
z"/>
<path fill="#89CCD7" opacity="1.000000" stroke="none" 
	d="
M353.184692,190.780914 
	C353.161774,190.643173 353.305756,190.247543 353.697845,189.648499 
	C353.747864,189.804413 353.549713,190.163712 353.184692,190.780914 
z"/>
<path fill="#89CCD7" opacity="1.000000" stroke="none" 
	d="
M333.880066,183.037018 
	C333.972717,183.127640 333.491180,182.995667 333.274170,182.872559 
	C333.323669,182.730789 333.567078,182.796448 333.880066,183.037018 
z"/>
<path fill="#89CCD7" opacity="1.000000" stroke="none" 
	d="
M318.743530,183.232697 
	C318.821411,183.327942 318.369812,183.215057 318.182373,183.076843 
	C318.248596,182.904984 318.472137,182.971252 318.743530,183.232697 
z"/>
<path fill="#89CCD7" opacity="1.000000" stroke="none" 
	d="
M333.174591,193.196838 
	C333.053711,193.172882 333.511871,193.043228 333.748779,193.021790 
	C333.780792,193.153687 333.550720,193.227173 333.174591,193.196838 
z"/>
<path fill="#8CCED8" opacity="1.000000" stroke="none" 
	d="
M404.131012,198.210815 
	C404.000366,198.197083 404.445709,197.984131 404.683228,197.918274 
	C404.753754,198.071228 404.534088,198.195282 404.131012,198.210815 
z"/>
<path fill="#6ECDDD" opacity="1.000000" stroke="none" 
	d="
M423.942505,153.686646 
	C423.952179,153.811600 423.461487,153.867188 422.728455,153.933197 
	C422.804749,153.834824 423.123444,153.726044 423.942505,153.686646 
z"/>
<path fill="#85CDD8" opacity="1.000000" stroke="none" 
	d="
M275.043091,192.283020 
	C275.228363,190.457230 275.256256,188.539581 276.229126,187.583328 
	C276.801544,187.020706 279.196442,187.594986 280.163910,188.393890 
	C280.853668,188.963455 280.820801,191.786652 280.615784,191.844269 
	C278.903076,192.325653 277.075684,192.398834 275.043091,192.283020 
z"/>
</svg>